HIERARCHY
ROOT Storm:Solving:Root
{
	OFFSET 0.000000 0.000000 0.000000
	CHANNELS 6 Xposition Yposition Zposition Xrotation Yrotation Zrotation
	JOINT Storm:Solving:L_Clav
	{
		OFFSET 0.000000 0.000000 0.000000
		CHANNELS 6 Xposition Yposition Zposition Xrotation Yrotation Zrotation
		JOINT Storm:Solving:L_Scapula_Joint
		{
			OFFSET 4.000000 0.000000 0.000000
			CHANNELS 6 Xposition Yposition Zposition Xrotation Yrotation Zrotation
			JOINT Storm:Solving:L_Shoulder_Joint
			{
				OFFSET 4.002680 -11.084217 10.770057
				CHANNELS 6 Xposition Yposition Zposition Xrotation Yrotation Zrotation
				JOINT Storm:Solving:L_Elbow_Joint
				{
					OFFSET 2.147804 -15.161016 -8.035206
					CHANNELS 6 Xposition Yposition Zposition Xrotation Yrotation Zrotation
					JOINT Storm:Solving:L_Wrist_Joint
					{
						OFFSET -2.240269 -20.029085 -9.040075
						CHANNELS 6 Xposition Yposition Zposition Xrotation Yrotation Zrotation
						JOINT Storm:Solving:L_Paw_Joint
						{
							OFFSET 0.706234 -5.721245 1.834930
							CHANNELS 6 Xposition Yposition Zposition Xrotation Yrotation Zrotation
							JOINT Storm:Solving:NewBone_4
							{
								OFFSET 1.343818 -3.510090 4.244948
								CHANNELS 6 Xposition Yposition Zposition Xrotation Yrotation Zrotation
								End Site
								{
									OFFSET 5.410949 0.263100 -1.672891
								}
							}
						}
					}
				}
			}
		}
	}
	JOINT Storm:Solving:R_Clav
	{
		OFFSET 0.000000 0.000000 0.000000
		CHANNELS 6 Xposition Yposition Zposition Xrotation Yrotation Zrotation
		JOINT Storm:Solving:R_Scapula_Joint
		{
			OFFSET -4.000000 -0.000000 0.000001
			CHANNELS 6 Xposition Yposition Zposition Xrotation Yrotation Zrotation
			JOINT Storm:Solving:NewBone_3
			{
				OFFSET -4.614829 -11.686039 9.889529
				CHANNELS 6 Xposition Yposition Zposition Xrotation Yrotation Zrotation
				JOINT Storm:Solving:R_Elbow_Joint
				{
					OFFSET -0.160743 -16.404385 -5.491840
					CHANNELS 6 Xposition Yposition Zposition Xrotation Yrotation Zrotation
					JOINT Storm:Solving:R_Wrist_Joint
					{
						OFFSET 2.412016 -21.935680 1.190893
						CHANNELS 6 Xposition Yposition Zposition Xrotation Yrotation Zrotation
						JOINT Storm:Solving:R_Paw_Joint
						{
							OFFSET -0.535018 -3.351765 3.806499
							CHANNELS 6 Xposition Yposition Zposition Xrotation Yrotation Zrotation
							JOINT Storm:Solving:NewBone_5
							{
								OFFSET -0.877549 -2.975662 5.252175
								CHANNELS 6 Xposition Yposition Zposition Xrotation Yrotation Zrotation
								End Site
								{
									OFFSET 5.926299 0.585030 1.321637
								}
							}
						}
					}
				}
			}
		}
	}
	JOINT Storm:Solving:Root_To_Spine_Dummy
	{
		OFFSET 0.000000 0.000000 0.000000
		CHANNELS 6 Xposition Yposition Zposition Xrotation Yrotation Zrotation
		JOINT Storm:Solving:Spine1
		{
			OFFSET 0.000000 0.000000 -3.827275
			CHANNELS 6 Xposition Yposition Zposition Xrotation Yrotation Zrotation
			JOINT Storm:Solving:Spine2
			{
				OFFSET 0.000001 0.000000 -16.939260
				CHANNELS 6 Xposition Yposition Zposition Xrotation Yrotation Zrotation
				JOINT Storm:Solving:Spine3
				{
					OFFSET 0.000002 0.000000 -14.393892
					CHANNELS 6 Xposition Yposition Zposition Xrotation Yrotation Zrotation
					JOINT Storm:Solving:Pelvis_Root
					{
						OFFSET 0.000002 0.000000 -14.393890
						CHANNELS 6 Xposition Yposition Zposition Xrotation Yrotation Zrotation
						JOINT Storm:Solving:L_Pelvis
						{
							OFFSET 0.000000 0.000000 0.000000
							CHANNELS 6 Xposition Yposition Zposition Xrotation Yrotation Zrotation
							JOINT Storm:Solving:LFemur_Joint
							{
								OFFSET 8.318080 -6.780918 -6.728058
								CHANNELS 6 Xposition Yposition Zposition Xrotation Yrotation Zrotation
								JOINT Storm:Solving:LTibia_Joint
								{
									OFFSET 4.762119 -18.232958 12.109562
									CHANNELS 6 Xposition Yposition Zposition Xrotation Yrotation Zrotation
									JOINT Storm:Solving:LAnkle_Joint
									{
										OFFSET 1.748854 -18.426313 -12.690502
										CHANNELS 6 Xposition Yposition Zposition Xrotation Yrotation Zrotation
										JOINT Storm:Solving:LFoot_Joint
										{
											OFFSET 2.893215 -10.324425 3.420891
											CHANNELS 6 Xposition Yposition Zposition Xrotation Yrotation Zrotation
											JOINT Storm:Solving:LFoot_End
											{
												OFFSET 3.317142 -1.153622 6.178677
												CHANNELS 6 Xposition Yposition Zposition Xrotation Yrotation Zrotation
												End Site
												{
													OFFSET 6.285072 0.685661 -3.246243
												}
											}
										}
									}
								}
							}
						}
						JOINT Storm:Solving:R_Pelvis
						{
							OFFSET 0.000000 0.000000 0.000000
							CHANNELS 6 Xposition Yposition Zposition Xrotation Yrotation Zrotation
							JOINT Storm:Solving:RFemur_Joint
							{
								OFFSET -8.082922 -7.104603 -6.553699
								CHANNELS 6 Xposition Yposition Zposition Xrotation Yrotation Zrotation
								JOINT Storm:Solving:RTibia_Joint
								{
									OFFSET -3.034004 -18.950596 11.551186
									CHANNELS 6 Xposition Yposition Zposition Xrotation Yrotation Zrotation
									JOINT Storm:Solving:RAnkle_Joint
									{
										OFFSET 0.163292 -19.936810 -10.210636
										CHANNELS 6 Xposition Yposition Zposition Xrotation Yrotation Zrotation
										JOINT Storm:Solving:RFoot_Joint
										{
											OFFSET -0.793680 -9.967937 0.101715
											CHANNELS 6 Xposition Yposition Zposition Xrotation Yrotation Zrotation
											JOINT Storm:Solving:RFoot_End
											{
												OFFSET -4.434014 -1.490955 4.525612
												CHANNELS 6 Xposition Yposition Zposition Xrotation Yrotation Zrotation
												End Site
												{
													OFFSET -4.697033 0.328136 -4.493862
												}
											}
										}
									}
								}
							}
						}
					}
				}
			}
		}
	}
	JOINT Storm:Solving:Root_To_Neck
	{
		OFFSET 0.000000 0.000000 0.000000
		CHANNELS 6 Xposition Yposition Zposition Xrotation Yrotation Zrotation
		JOINT Storm:Solving:Neck1
		{
			OFFSET 0.000000 4.185541 5.729186
			CHANNELS 6 Xposition Yposition Zposition Xrotation Yrotation Zrotation
			JOINT Storm:Solving:Neck2
			{
				OFFSET 2.125778 5.862305 7.100437
				CHANNELS 6 Xposition Yposition Zposition Xrotation Yrotation Zrotation
				JOINT Storm:Solving:Head
				{
					OFFSET -4.381103 5.689912 1.801980
					CHANNELS 6 Xposition Yposition Zposition Xrotation Yrotation Zrotation
					JOINT Storm:Solving:Head_End
					{
						OFFSET -9.753127 2.579648 15.562063
						CHANNELS 6 Xposition Yposition Zposition Xrotation Yrotation Zrotation
						End Site
						{
							OFFSET -4.085257 17.259090 -5.421284
						}
					}
				}
			}
		}
	}
	JOINT Storm:Solving:R_Clav_1
	{
		OFFSET 0.000000 0.000000 0.000000
		CHANNELS 6 Xposition Yposition Zposition Xrotation Yrotation Zrotation
		End Site
		{
			OFFSET 0.000000 0.010000 -0.000000
		}
	}
}
MOTION
Frames: 4
Frame Time: 0.008333
13.462576 55.092560 -116.463554 16.843330 14.781602 1.557934 -0.000001 0.000003 0.000006 -3.565468 -1.257437 19.401618 3.999998 -0.000006 0.000006 -1.333194 6.252550 -31.249041 4.002682 -11.084214 10.770058 7.148658 -27.922940 -6.136299 2.147808 -15.161012 -8.035206 -84.942247 1.468118 23.486096 -2.240274 -20.029087 -9.040085 75.474287 -18.396556 2.285250 0.706236 -5.721240 1.834930 28.708118 -0.841074 -8.853332 1.343817 -3.510090 4.244949 0.000007 0.000001 0.000000 -0.000001 0.000003 0.000006 2.303870 -0.676522 -16.356015 -3.999999 -0.000006 0.000006 2.242851 0.416721 8.596302 -4.614821 -11.686040 9.889526 3.716529 -0.318987 5.858956 -0.160745 -16.404392 -5.491838 -14.680305 -1.651625 0.527873 2.412014 -21.935682 1.190889 -11.916605 -4.013536 -4.991866 -0.535020 -3.351775 3.806499 -2.171394 -0.205047 -0.487991 -0.877547 -2.975674 5.252181 -0.000000 0.000000 -0.000000 -0.000001 0.000003 0.000006 0.000000 0.000000 -0.000001 -0.000000 -0.000001 -3.827275 -16.194597 -6.239587 -4.969224 -0.000001 0.000000 -16.939257 -4.260975 0.167678 2.479587 -0.000000 -0.000005 -14.393871 3.404178 -0.577713 -13.262568 -0.000002 0.000004 -14.393891 12.402543 -4.350429 3.041550 -0.000002 -0.000001 0.000011 -0.000004 0.000000 -0.000005 8.318067 -6.780914 -6.728037 -13.201826 13.051206 -10.191273 4.762105 -18.232956 12.109550 -10.096976 -2.379024 1.635004 1.748845 -18.426308 -12.690530 -17.204994 -3.447404 1.651373 2.893210 -10.324419 3.420885 14.098368 0.629370 -7.365519 3.317135 -1.153625 6.178681 0.000000 0.000003 0.000001 0.000001 0.000005 0.000015 0.000003 0.000001 -0.000000 -8.082938 -7.104610 -6.553704 12.476507 14.141552 8.069571 -3.033999 -18.950590 11.551183 -4.477532 0.378080 -0.738729 0.163303 -19.936817 -10.210640 10.900852 0.984840 13.872951 -0.793678 -9.967914 0.101706 -1.476582 0.121473 -1.412591 -4.434012 -1.490954 4.525617 -0.000003 0.000004 0.000002 -0.000001 0.000003 0.000006 0.000002 -0.000001 -0.000000 -0.000003 4.185537 5.729176 0.966059 -5.203909 3.958784 2.125775 5.862309 7.100437 55.890062 12.906576 -33.794670 -4.381089 5.689910 1.801978 -18.941988 -2.956692 5.775527 -9.753129 2.579652 15.562071 -0.000000 0.000003 -0.000001 -0.000001 0.000003 0.000006 0.000001 0.000001 -0.000000 
13.462576 55.092560 -116.463554 16.843330 14.781602 1.557934 -0.000001 0.000003 0.000006 -3.565468 -1.257437 19.401618 3.999998 -0.000006 0.000006 -1.333194 6.252550 -31.249041 4.002682 -11.084214 10.770058 7.148658 -27.922940 -6.136299 2.147808 -15.161012 -8.035206 -84.942247 1.468118 23.486096 -2.240274 -20.029087 -9.040085 75.474287 -18.396556 2.285250 0.706236 -5.721240 1.834930 28.708118 -0.841074 -8.853332 1.343817 -3.510090 4.244949 0.000007 0.000001 0.000000 -0.000001 0.000003 0.000006 2.303870 -0.676522 -16.356015 -3.999999 -0.000006 0.000006 2.242851 0.416721 8.596302 -4.614821 -11.686040 9.889526 3.716529 -0.318987 5.858956 -0.160745 -16.404392 -5.491838 -14.680305 -1.651625 0.527873 2.412014 -21.935682 1.190889 -11.916605 -4.013536 -4.991866 -0.535020 -3.351775 3.806499 -2.171394 -0.205047 -0.487991 -0.877547 -2.975674 5.252181 -0.000000 0.000000 -0.000000 -0.000001 0.000003 0.000006 0.000000 0.000000 -0.000001 -0.000000 -0.000001 -3.827275 -16.194597 -6.239587 -4.969224 -0.000001 0.000000 -16.939257 -4.260975 0.167678 2.479587 -0.000000 -0.000005 -14.393871 3.404178 -0.577713 -13.262568 -0.000002 0.000004 -14.393891 12.402543 -4.350429 3.041550 -0.000002 -0.000001 0.000011 -0.000004 0.000000 -0.000005 8.318067 -6.780914 -6.728037 -13.201826 13.051206 -10.191273 4.762105 -18.232956 12.109550 -10.096976 -2.379024 1.635004 1.748845 -18.426308 -12.690530 -17.204994 -3.447404 1.651373 2.893210 -10.324419 3.420885 14.098368 0.629370 -7.365519 3.317135 -1.153625 6.178681 0.000000 0.000003 0.000001 0.000001 0.000005 0.000015 0.000003 0.000001 -0.000000 -8.082938 -7.104610 -6.553704 12.476507 14.141552 8.069571 -3.033999 -18.950590 11.551183 -4.477532 0.378080 -0.738729 0.163303 -19.936817 -10.210640 10.900852 0.984840 13.872951 -0.793678 -9.967914 0.101706 -1.476582 0.121473 -1.412591 -4.434012 -1.490954 4.525617 -0.000003 0.000004 0.000002 -0.000001 0.000003 0.000006 0.000002 -0.000001 -0.000000 -0.000003 4.185537 5.729176 0.966059 -5.203909 3.958784 2.125775 5.862309 7.100437 55.890062 12.906576 -33.794670 -4.381089 5.689910 1.801978 -18.941988 -2.956692 5.775527 -9.753129 2.579652 15.562071 -0.000000 0.000003 -0.000001 -0.000001 0.000003 0.000006 0.000001 0.000001 -0.000000 
13.456124 55.079494 -115.950089 17.080811 14.513797 1.464015 -0.000003 0.000004 0.000015 -3.848658 -1.310616 18.777840 3.999995 0.000000 0.000006 -1.648626 6.226353 -30.698309 4.002676 -11.084213 10.770051 4.977386 -26.146500 -5.687296 2.147805 -15.161010 -8.035203 -83.159937 3.192015 21.407684 -2.240273 -20.029087 -9.040079 69.069503 -19.005242 0.945634 0.706232 -5.721243 1.834924 28.159789 -0.783561 -8.690865 1.343817 -3.510102 4.244948 0.000004 0.000003 -0.000001 -0.000003 0.000004 0.000015 2.406921 -0.702604 -16.263638 -4.000006 -0.000000 0.000011 2.373841 0.513371 8.581654 -4.614828 -11.686034 9.889507 3.637000 -0.298993 6.019143 -0.160743 -16.404383 -5.491838 -14.578258 -1.639740 0.525681 2.412019 -21.935684 1.190901 -11.454100 -3.821808 -4.892252 -0.535018 -3.351752 3.806496 -3.118106 -0.288578 -0.702998 -0.877546 -2.975670 5.252164 0.000001 -0.000000 -0.000000 -0.000003 0.000004 0.000015 0.000001 -0.000000 -0.000000 -0.000003 0.000001 -3.827262 -16.370237 -6.214931 -4.746700 0.000003 -0.000002 -16.939260 -4.239061 0.301090 2.576556 0.000000 -0.000004 -14.393880 3.458409 -0.512820 -13.448899 0.000000 -0.000002 -14.393860 12.551382 -4.079027 3.192627 -0.000003 -0.000001 -0.000015 -0.000002 -0.000002 0.000005 8.318082 -6.780932 -6.728059 -12.764119 13.209541 -10.557420 4.762115 -18.232946 12.109560 -10.334396 -2.438436 1.668415 1.748850 -18.426311 -12.690533 -17.243991 -3.469804 1.341550 2.893211 -10.324411 3.420868 13.833741 0.634318 -7.226709 3.317132 -1.153618 6.178674 -0.000000 0.000006 0.000002 0.000001 0.000005 -0.000015 0.000002 -0.000001 -0.000001 -8.082928 -7.104601 -6.553694 12.228010 14.405598 7.960124 -3.034009 -18.950586 11.551194 -4.243945 0.356928 -0.700918 0.163299 -19.936800 -10.210632 11.280979 0.831449 13.302531 -0.793693 -9.967943 0.101734 0.308022 -0.020721 0.294703 -4.434009 -1.490947 4.525616 0.000001 0.000002 0.000002 -0.000003 0.000004 0.000015 0.000003 -0.000001 -0.000000 -0.000001 4.185539 5.729197 1.204925 -3.799971 2.798695 2.125787 5.862301 7.100418 54.299263 15.092794 -30.886611 -4.381105 5.689919 1.801976 -17.618780 -4.017274 4.779088 -9.753129 2.579653 15.562060 0.000000 0.000004 0.000000 -0.000003 0.000004 0.000015 0.000000 0.000000 -0.000000 
13.449989 55.071980 -115.432953 17.304867 14.231854 1.421504 -0.000002 0.000007 -0.000006 -4.125105 -1.336382 17.919867 3.999998 -0.000001 0.000004 -1.955644 6.122563 -29.954611 4.002682 -11.084203 10.770063 2.606447 -24.080103 -5.229413 2.147808 -15.161004 -8.035223 -80.697155 4.439996 19.026899 -2.240268 -20.029079 -9.040077 62.736906 -20.001504 -0.528749 0.706229 -5.721243 1.834921 27.285933 -0.695155 -8.430928 1.343814 -3.510078 4.244955 0.000009 0.000001 -0.000003 -0.000002 0.000007 -0.000006 2.498957 -0.723270 -16.131864 -4.000001 0.000001 -0.000002 2.513270 0.705964 8.478618 -4.614830 -11.686046 9.889533 3.522639 -0.291158 6.153089 -0.160743 -16.404383 -5.491852 -14.408429 -1.619961 0.521991 2.412017 -21.935682 1.190888 -11.138439 -3.658230 -4.814222 -0.535017 -3.351761 3.806510 -3.853966 -0.351028 -0.871003 -0.877550 -2.975659 5.252178 0.000001 0.000001 0.000000 -0.000002 0.000007 -0.000006 0.000000 0.000000 -0.000000 -0.000004 0.000003 -3.827276 -16.536767 -6.178968 -4.571237 0.000002 -0.000006 -16.939264 -4.223671 0.436382 2.600281 0.000000 -0.000002 -14.393899 3.459602 -0.408124 -13.463572 0.000001 0.000003 -14.393888 12.743284 -3.758963 3.230856 -0.000003 -0.000007 -0.000019 -0.000002 0.000002 0.000005 8.318083 -6.780925 -6.728055 -12.328732 13.233077 -10.904628 4.762121 -18.232958 12.109549 -10.572450 -2.498151 1.701672 1.748844 -18.426304 -12.690527 -17.255781 -3.484700 1.097213 2.893202 -10.324423 3.420885 13.464595 0.640142 -7.033056 3.317139 -1.153623 6.178692 0.000003 -0.000001 -0.000000 0.000001 -0.000002 -0.000023 -0.000001 -0.000001 -0.000002 -8.082917 -7.104604 -6.553709 11.874173 14.520171 7.868275 -3.034006 -18.950607 11.551185 -3.703995 0.308623 -0.613196 0.163292 -19.936821 -10.210631 11.300960 0.700863 12.740194 -0.793688 -9.967937 0.101701 2.472756 -0.121522 2.366045 -4.434009 -1.490961 4.525607 -0.000002 0.000003 0.000001 -0.000002 0.000007 -0.000006 0.000003 0.000001 -0.000002 -0.000005 4.185550 5.729207 1.442029 -2.534926 1.713391 2.125787 5.862293 7.100443 52.738735 16.745515 -28.389847 -4.381103 5.689916 1.801990 -16.654281 -4.735760 4.087892 -9.753125 2.579642 15.562056 -0.000000 -0.000000 0.000002 -0.000002 0.000007 -0.000006 -0.000001 0.000001 -0.000000 
